<svg width="21" height="21" viewBox="0 0 21 21" fill="none" xmlns="http://www.w3.org/2000/svg">
<g id="date and time" clip-path="url(#clip0_805_4595)">
<g id="Group">
<g id="Group_2">
<g id="Group_3">
<path id="Vector" d="M8.09854 8.75439H6.42383V10.4291H8.09854V8.75439Z" fill="#FF5FA2"/>
<path id="Vector_2" d="M18.1449 1.21819H17.3075C17.3075 0.755978 16.9332 0.380859 16.4702 0.380859C16.0071 0.380859 15.6328 0.755978 15.6328 1.21819H5.58464C5.58464 0.755978 5.21035 0.380859 4.7473 0.380859C4.28422 0.380859 3.90993 0.755978 3.90993 1.21819H3.07259C1.68763 1.21819 0.560547 2.34528 0.560547 3.73023V4.56757H20.6569V3.73023C20.6569 2.34528 19.5298 1.21819 18.1449 1.21819Z" fill="#FF5FA2"/>
<path id="Vector_3" d="M8.09854 14.6172H6.42383V16.2919H8.09854V14.6172Z" fill="#FF5FA2"/>
<path id="Vector_4" d="M14.7948 8.75439H13.1201V10.4291H14.7948V8.75439Z" fill="#FF5FA2"/>
<path id="Vector_5" d="M0.560547 17.967C0.560547 19.352 1.68763 20.4791 3.07259 20.4791H13.6986C12.3429 19.5781 11.4461 18.039 11.4461 16.2923C11.4461 14.5456 12.3429 13.0066 13.6986 12.1056H12.2834C11.8204 12.1056 11.4461 11.7304 11.4461 11.2682V7.91885C11.4461 7.45663 11.8204 7.08151 12.2834 7.08151H15.6328C16.0959 7.08151 16.4702 7.45663 16.4702 7.91885V11.2682C18.2169 11.2682 19.7559 12.165 20.6569 13.5207V6.24414H0.560547V17.967ZM4.7473 7.91885C4.7473 7.45663 5.1216 7.08151 5.58464 7.08151H8.93402C9.39706 7.08151 9.77136 7.45663 9.77136 7.91885V11.2682C9.77136 11.7304 9.39706 12.1056 8.93402 12.1056H5.58464C5.1216 12.1056 4.7473 11.7304 4.7473 11.2682V7.91885ZM4.7473 13.7803C4.7473 13.3181 5.1216 12.9429 5.58464 12.9429H8.93402C9.39706 12.9429 9.77136 13.3181 9.77136 13.7803V17.1296C9.77136 17.5919 9.39706 17.967 8.93402 17.967H5.58464C5.1216 17.967 4.7473 17.5919 4.7473 17.1296V13.7803Z" fill="#FF5FA2"/>
<path id="Vector_6" d="M16.4695 12.9409C14.6223 12.9409 13.1201 14.4431 13.1201 16.2903C13.1201 18.1375 14.6223 19.6397 16.4695 19.6397C18.3167 19.6397 19.8189 18.1375 19.8189 16.2903C19.8189 14.4431 18.3167 12.9409 16.4695 12.9409ZM17.3069 17.1277H16.4695C16.0065 17.1277 15.6322 16.7525 15.6322 16.2903V14.6156C15.6322 14.1534 16.0065 13.7783 16.4695 13.7783C16.9326 13.7783 17.3069 14.1534 17.3069 14.6156V15.453C17.7699 15.453 18.1442 15.8281 18.1442 16.2903C18.1442 16.7525 17.7699 17.1277 17.3069 17.1277Z" fill="#FF5FA2"/>
</g>
</g>
</g>
</g>
<defs>
<clipPath id="clip0_805_4595">
<rect width="20.0964" height="20.0963" fill="white" transform="translate(0.574219 0.369141)"/>
</clipPath>
</defs>
</svg>
