<svg width="21" height="21" viewBox="0 0 21 21" fill="none" xmlns="http://www.w3.org/2000/svg">
<g id="Frame 19">
<path id="Vector" d="M16.7972 0.0307617C15.8846 0.0307617 14.7693 1.04469 14.7693 2.05862H6.65782C6.65782 1.04469 5.54249 0.0307617 4.62995 0.0307617H0.574219V9.15614C0.574219 10.1701 1.58815 11.184 2.60209 11.184H4.83274C5.23831 13.2119 6.55643 14.9355 9.69962 15.2397V17.3487C6.65782 17.8151 6.65782 20.3094 6.65782 20.3094H14.7693C14.7693 20.3094 14.7693 17.8151 11.7275 17.3487V15.2397C14.8707 14.9355 16.1888 13.2119 16.5944 11.184H18.825C19.839 11.184 20.8529 10.1701 20.8529 9.15614V0.0307617H16.7972ZM4.62995 9.15614H2.60209V2.05862H4.62995V9.15614ZM18.825 9.15614H16.7972V2.05862H18.825V9.15614Z" fill="#FF5FA2"/>
</g>
</svg>
