<svg width="21" height="21" viewBox="0 0 21 21" fill="none" xmlns="http://www.w3.org/2000/svg">
<g id="location" clip-path="url(#clip0_805_4589)">
<g id="Group">
<path id="Vector" d="M10.5633 0.142578C6.71919 0.142578 3.5918 3.27142 3.5918 7.1169C3.5918 10.8185 9.91721 19.4668 10.1865 19.833L10.4379 20.1752C10.4673 20.2154 10.5141 20.2389 10.5633 20.2389C10.6134 20.2389 10.6599 20.2154 10.6896 20.1752L10.9408 19.833C11.2103 19.4668 17.5355 10.8185 17.5355 7.1169C17.5355 3.27142 14.4076 0.142578 10.5633 0.142578ZM10.5633 4.61871C11.9407 4.61871 13.0607 5.73914 13.0607 7.1169C13.0607 8.49395 11.9407 9.61509 10.5633 9.61509C9.18679 9.61509 8.06595 8.49395 8.06595 7.1169C8.06595 5.73914 9.18674 4.61871 10.5633 4.61871Z" fill="#FF5FA2"/>
</g>
</g>
<defs>
<clipPath id="clip0_805_4589">
<rect width="20.0964" height="20.0963" fill="white" transform="translate(0.574219 0.142578)"/>
</clipPath>
</defs>
</svg>
